<?xml version="1.0" standalone="no"?>
<!DOCTYPE svg PUBLIC "-//W3C//DTD SVG 20010904//EN"
 "http://www.w3.org/TR/2001/REC-SVG-20010904/DTD/svg10.dtd">
<svg version="1.0" xmlns="http://www.w3.org/2000/svg"
 width="800.000000pt" height="800.000000pt" viewBox="0 0 800.000000 800.000000"
 preserveAspectRatio="xMidYMid meet">
<metadata>
Created by potrace 1.14, written by Peter Selinger 2001-2017
</metadata>
<g transform="translate(0.000000,800.000000) scale(0.100000,-0.100000)"
fill="#000000" stroke="none">
<path d="M3965 7767 c-60 -29 -87 -57 -114 -117 -35 -77 -23 -158 35 -236 59
-78 107 -110 181 -119 217 -28 349 240 200 404 -36 38 -135 83 -196 88 -45 3
-66 -1 -106 -20z"/>
<path d="M3365 7351 c-108 -50 -157 -186 -106 -296 26 -58 118 -141 172 -155
178 -48 328 108 279 289 -14 52 -92 134 -155 162 -52 24 -138 24 -190 0z"/>
<path d="M4565 7356 c-85 -37 -135 -113 -135 -206 0 -74 25 -125 92 -186 108
-98 234 -100 329 -5 103 103 89 254 -32 345 -28 21 -66 44 -85 52 -42 17 -129
18 -169 0z"/>
<path d="M2380 7157 c0 -3 27 -61 60 -129 81 -167 111 -286 112 -438 1 -190
-47 -344 -222 -705 -194 -400 -238 -574 -211 -830 35 -328 144 -571 358 -796
232 -243 510 -407 898 -529 128 -40 314 -84 405 -96 l55 -7 -55 62 c-161 182
-286 363 -377 546 -79 158 -108 233 -143 368 -68 262 -68 461 1 829 16 87 43
231 59 319 66 353 55 558 -41 758 -107 226 -324 435 -570 550 -102 48 -329
115 -329 98z"/>
<path d="M5610 7135 c-227 -63 -405 -169 -566 -337 -92 -96 -141 -167 -194
-281 -54 -115 -70 -184 -77 -322 -6 -138 7 -245 67 -557 54 -282 72 -423 72
-568 1 -467 -201 -948 -574 -1369 -32 -36 -56 -66 -55 -68 8 -7 291 41 390 67
404 104 727 278 967 519 162 164 259 316 319 506 50 157 64 246 65 415 1 132
-2 168 -22 240 -31 115 -99 282 -194 480 -161 333 -210 489 -210 665 0 161 29
267 130 474 28 59 31 100 6 114 -9 5 -13 16 -9 28 8 25 -7 24 -115 -6z"/>
<path d="M4038 6783 c-32 -37 -142 -199 -214 -314 -235 -377 -387 -759 -440
-1109 -21 -139 -20 -394 1 -525 65 -403 237 -737 569 -1098 l98 -108 22 19
c11 11 31 25 43 31 32 16 211 228 298 352 88 125 189 316 240 452 195 528 114
1127 -240 1777 -100 183 -242 406 -293 460 -13 14 -31 37 -40 53 -19 32 -24
33 -44 10z"/>
<path d="M6151 4814 c-45 -188 -111 -337 -222 -499 -272 -401 -765 -698 -1394
-840 -182 -41 -268 -51 -318 -36 -51 15 -58 15 -123 0 -43 -10 -59 -10 -99 3
-41 14 -52 14 -81 2 -50 -21 -107 -17 -269 16 -604 126 -1072 375 -1369 730
-143 171 -190 262 -311 609 l-22 64 -57 -69 c-221 -265 -432 -687 -526 -1051
-156 -603 -105 -1255 143 -1828 186 -432 505 -851 865 -1140 170 -137 432
-297 602 -370 193 -82 220 -91 435 -154 336 -98 841 -119 1210 -50 239 44 422
98 615 182 117 51 264 125 312 158 14 11 29 19 32 19 4 0 32 17 64 37 705 461
1165 1184 1277 2009 23 162 30 437 16 594 -48 550 -220 1007 -552 1465 -48 66
-113 149 -146 184 l-58 64 -24 -99z"/>
</g>
</svg>
